# xmcd CD database file
#
# Track frame offsets:
#	150
#	4408
#	9843
#	39892
#	90005
#	124253
#	129674
#	153191
#	168700
#	207520
#	215346
#	228339
#
# Disc length: 3758 seconds
#
# Revision: 1
# Processed by: cddbd v1.5.2PL0 Copyright (c) Steve Scherf et al.
# Submitted via: CDex 1.51
#
DISCID=8f0eac0c
DTITLE=Diana Cooper - Meditationen für ein neues Zeitalter
DYEAR=1900
DGENRE=New Age
TTITLE0=Karma auflösen
TTITLE1=Karma auflösen
TTITLE2=Karma auflösen
TTITLE3=Karma auflösen
TTITLE4=Karma auflösen
TTITLE5=Karma auflösen
TTITLE6=Karma auflösen
TTITLE7=Karma auflösen
TTITLE8=Karma auflösen
TTITLE9=Karma auflösen
TTITLE10=Karma auflösen
TTITLE11=Karma auflösen
EXTD=
EXTT0=
EXTT1=
EXTT2=
EXTT3=
EXTT4=
EXTT5=
EXTT6=
EXTT7=
EXTT8=
EXTT9=
EXTT10=
EXTT11=
PLAYORDER=
